# xmcd
#
# Track frame offsets:
#	225
#	16654
#	43483
#	72954
#	105650
#	128524
#	145980
#	164181
#	197404
#	225340
#
# Disc length: 3364 seconds
#
# Revision: 0
# Processed by: cddbd v1.4PL0 Copyright (c) Steve Scherf et al.
# Submitted via: EasyCDDAExtractor 4.5.0.2
#
DISCID=850d210a
DTITLE=free and easy - a roll of the dice
DYEAR=1999
DGENRE=Blues
TTITLE0=a happy man
TTITLE1=light me up
TTITLE2=bad luck
TTITLE3=born a free man
TTITLE4=brother joe
TTITLE5=love hurts
TTITLE6=baby that's love
TTITLE7=roll on mississipi
TTITLE8=cloudy skies
TTITLE9=hold on
EXTD=
EXTT0=
EXTT1=
EXTT2=
EXTT3=
EXTT4=
EXTT5=
EXTT6=
EXTT7=
EXTT8=
EXTT9=
PLAYORDER=
